. 
 
http://www.torrenting.com          :     Once & For all ;)


               www . Torrenting . Com 

(((((((((((((= Enjoy No RAR releases =))))))))))))))))))))


...................................NFO:....................................

.                                                                
 @@@@@@@   @@@  @@@  @@@  @@@@@@@@  @@@@@@@   @@@@@@    @@@  @@@@@@@  @@@ @@@ 
 @@@@@@@@  @@@  @@@  @@@  @@@@@@@@  @@@@@@@@  @@@@@@@   @@@  @@@@@@@  @@@ @@@ 
 @@!  @@@  @@!  @@!  @@@  @@!       @@!  @@@  !@@       @@!    @@!    @@! !@@ 
 !@!  @!@  !@!  !@!  @!@  !@!       !@!  @!@  !@!       !@!    !@!    !@! @!! 
 @!@  !@!  !!@  @!@  !@!  @!!!:!    @!@!!@!   !!@@!!    !!@    @!!     !@!@!  
 !@!  !!!  !!!  !@!  !!!  !!!!!:    !!@!@!     !!@!!!   !!!    !!!      @!!!  
 !!:  !!!  !!:  :!:  !!:  !!:       !!: :!!        !:!  !!:    !!:      !!:   
 :!:  !:!  :!:   ::!!:!   :!:       :!:  !:!      !:!   :!:    :!:      :!:   
 :::: ::   ::    ::::     :: ::::   ::   :::  :::: ::    ::     ::       ::   
 :: :  :   :       :      : :: ::    :   : :  :: : :    :       :        :       


General
Complete name                    : Into the Arms of Strangers Stories of the Kindertransport (2000)DiVERSiTY.avi
Format                           : AVI
Format/Info                      : Audio Video Interleave
File size                        : 1.40 GiB
Duration                         : 1h 52mn
Overall bit rate                 : 1 777 Kbps
Encoder                          : usagi
Source                           : Retail thnx derensjes
IMDb                             : http://www.imdb.com/title/tt0248912/

Video
ID                               : 0
Format                           : MPEG-4 Visual
Format profile                   : Advanced Simple@L5
Format settings, BVOP            : 2
Format settings, QPel            : No
Format settings, GMC             : No warppoints
Format settings, Matrix          : Default (H.263)
Codec ID                         : XVID
Codec ID/Hint                    : XviD
Duration                         : 1h 52mn
Bit rate                         : 1 321 Kbps
Width                            : 720 pixels
Height                           : 528 pixels
Display aspect ratio             : 4:3
Frame rate                       : 25.000 fps
Color space                      : YUV
Chroma subsampling               : 4:2:0
Bit depth                        : 8 bits
Scan type                        : Progressive
Compression mode                 : Lossy
Bits/(Pixel*Frame)               : 0.139
Stream size                      : 1.04 GiB (74%)
Writing library                  : XviD 1.2.1 (UTC 2008-12-04)

Audio
ID                               : 1
Format                           : AC-3
Format/Info                      : Audio Coding 3
Mode extension                   : CM (complete main)
Codec ID                         : 2000
Duration                         : 1h 52mn
Bit rate mode                    : Constant
Bit rate                         : 448 Kbps
Channel(s)                       : 6 channels
Channel positions                : Front: L C R, Side: L R, LFE
Sampling rate                    : 48.0 KHz
Bit depth                        : 16 bits
Compression mode                 : Lossy
Stream size                      : 361 MiB (25%)
Alignment                        : Aligned on interleaves
Interleave, duration             : 64 ms (1.60 video frames)
Interleave, preload duration     : 192 ms
Title                            : VTS_01_1 T80 3_2ch 384Kbps DELAY 0ms


Plot
In 1938 and 1939, about 10,000 children, most of them Jews, were sent by their parents from Germany, 
Austria, and Czechoslovakia to the safety of England where foster families took most of them in for the duration 
of the war. Years later, eleven kinder, one child's mother, an English foster mother, 
a survivor of Auschwitz who didn't go to England, and two of the kindertransport organizers remember: 
the days before the Nazis, the mid-to-late 1930s as Jews were ostracized, saying farewell to family, 
traveling to England, meeting their foster families, writing home, fearing the worst, coping, 
and trying to find families after the war ended. 1,500,000 children dead; 10,000 saved.


Cast
Judi Dench	 ...	Narrator
Lory Cahn	 ...	Herself
Kurt Fuchel	 ...	Himself
Eva Hayman	 ...	Herself
Ursula Rosenfeld	 ...	Herself
Lorraine Allard	 ...	Herself
Jack Hellman	 ...	Himself
Lore Segal	 ...	Herself
Robert Sugar	 ...	Himself


LOOKING FOR : Untouched DVD-R's, DVD Screeners, Early Releases DVD's, CAM's, 
and good quality LINE audio. 
Contact DiVERSiTY and let us know.  
diversity at hushmail dot com   



Greets
To Everyone who makes p2p possible...... Thanks.